<?xml version="1.0" standalone="no"?><!DOCTYPE svg PUBLIC "-//W3C//DTD SVG 1.1//EN" "http://www.w3.org/Graphics/SVG/1.1/DTD/svg11.dtd"><svg t="1727581538847" class="icon" viewBox="0 0 1024 1024" version="1.1" xmlns="http://www.w3.org/2000/svg" p-id="1590" xmlns:xlink="http://www.w3.org/1999/xlink" width="200" height="200"><path d="M861.090909 295.563636c13.963636 0 23.272727-9.309091 23.272727-23.272727V181.527273C884.363636 121.018182 835.490909 69.818182 772.654545 69.818182H251.345455C188.509091 69.818182 139.636364 121.018182 139.636364 181.527273v660.945454c0 60.509091 48.872727 111.709091 111.709091 111.709091h370.036363c6.981818 0 11.636364-2.327273 16.290909-6.981818l239.709091-242.036364c4.654545-4.654545 6.981818-9.309091 6.981818-16.290909V414.254545c0-13.963636-9.309091-23.272727-23.272727-23.272727s-23.272727 9.309091-23.272727 23.272727v251.345455h-216.436364c-13.963636 0-23.272727 9.309091-23.272727 23.272727V907.636364H251.345455C214.109091 907.636364 186.181818 877.381818 186.181818 842.472727V181.527273C186.181818 146.618182 214.109091 116.363636 251.345455 116.363636h523.636363C809.890909 116.363636 837.818182 146.618182 837.818182 181.527273v90.763636c0 13.963636 9.309091 23.272727 23.272727 23.272727z m-55.854545 416.581819l-160.581819 162.90909v-162.90909h160.581819z" p-id="1591"></path><path d="M756.363636 230.4H269.963636c-13.963636 0-23.272727 9.309091-23.272727 23.272727s9.309091 23.272727 23.272727 23.272728h486.4c13.963636 0 23.272727-9.309091 23.272728-23.272728s-11.636364-23.272727-23.272728-23.272727zM779.636364 386.327273c0-13.963636-9.309091-23.272727-23.272728-23.272728H269.963636c-13.963636 0-23.272727 9.309091-23.272727 23.272728s9.309091 23.272727 23.272727 23.272727h486.4c11.636364 0 23.272727-11.636364 23.272728-23.272727zM269.963636 493.381818c-13.963636 0-23.272727 9.309091-23.272727 23.272727s9.309091 23.272727 23.272727 23.272728h262.981819c13.963636 0 23.272727-9.309091 23.272727-23.272728s-9.309091-23.272727-23.272727-23.272727H269.963636z" p-id="1592"></path></svg>