<?xml version="1.0" standalone="no"?><!DOCTYPE svg PUBLIC "-//W3C//DTD SVG 1.1//EN" "http://www.w3.org/Graphics/SVG/1.1/DTD/svg11.dtd"><svg t="1727765225367" class="icon" viewBox="0 0 1024 1024" version="1.1" xmlns="http://www.w3.org/2000/svg" p-id="1623" xmlns:xlink="http://www.w3.org/1999/xlink" width="200" height="200"><path d="M813 929.2H94.5c-19.3 0-35-15.7-35-35V248.4c0-19.3 15.7-35 35-35h328.8c19.3 0 35 15.7 35 35s-15.7 35-35 35H129.5v575.8H778V621.3c0-19.3 15.7-35 35-35s35 15.7 35 35v272.9c0 19.3-15.7 35-35 35z" p-id="1624"></path><path d="M359.6 735.2c-8.9 0-17.6-3.4-24.2-9.7-8.5-8.2-12.4-20.1-10.2-31.7l28.4-151.6c1.3-7 4.7-13.4 9.8-18.4L787.1 105c13.7-13.5 35.7-13.5 49.4 0.1l117.8 117.8c6.6 6.6 10.3 15.5 10.3 24.8s-3.8 18.2-10.4 24.8L530.4 691.3c-4.6 4.6-10.4 7.7-16.7 9.2l-146.2 33.8c-2.7 0.6-5.3 0.9-7.9 0.9z m146.2-68.8z m-85.4-100.6L403.8 654l84.4-19.5 391.6-387.1-68.3-68.3-391.1 386.7z" p-id="1625"></path></svg>