<?xml version="1.0" standalone="no"?><!DOCTYPE svg PUBLIC "-//W3C//DTD SVG 1.1//EN" "http://www.w3.org/Graphics/SVG/1.1/DTD/svg11.dtd"><svg t="1726668597716" class="icon" viewBox="0 0 1024 1024" version="1.1" xmlns="http://www.w3.org/2000/svg" p-id="1440" xmlns:xlink="http://www.w3.org/1999/xlink" width="200" height="200"><path d="M942.65344 512.59392c0 204.82048-143.11424 375.88992-334.70464 419.55328l0-357.74464 103.48544 0 0-119.45984-104.57088 0 0-26.66496c0-51.2 22.40512-92.81536 75.73504-92.81536 21.36064 0 38.42048 3.21536 52.30592 7.4752l6.36928-124.80512c-22.40512-6.38976-50.11456-10.69056-86.36416-10.69056-46.94016 0-103.48544 13.90592-143.99488 52.28544-46.96064 42.68032-66.1504 112.00512-66.1504 174.91968l0 20.2752-68.25984 0 0 119.48032 68.25984 0 0 363.08992c-205.80352-32.37888-363.37664-210.00192-363.37664-424.89856 0-237.83424 192.8192-430.65344 430.65344-430.65344S942.65344 274.75968 942.65344 512.59392z" p-id="1441"></path></svg>