<?xml version="1.0" standalone="no"?><!DOCTYPE svg PUBLIC "-//W3C//DTD SVG 1.1//EN" "http://www.w3.org/Graphics/SVG/1.1/DTD/svg11.dtd"><svg t="1726668650974" class="icon" viewBox="0 0 1024 1024" version="1.1" xmlns="http://www.w3.org/2000/svg" p-id="1878" xmlns:xlink="http://www.w3.org/1999/xlink" width="200" height="200"><path d="M512.5 182c71.553 0 147.316 6.92 224.935 19.226a1903.434 1903.434 0 0 1 116.168 22.158l5.105 1.146c1.696 0.384 3.388 0.769 5.074 1.155l5.044 1.162 5.013 1.17c9.16 2.15 18.161 4.337 26.987 6.551C942.41 245 971 282.568 971 325.556v373.888c0 42.987-28.59 80.557-70.175 90.988l-2.411 0.603-4.849 1.202-4.882 1.196a1844.11 1844.11 0 0 1-9.864 2.374l-4.98 1.176-5.013 1.17-5.044 1.162-2.534 0.578-5.09 1.151a1903.512 1903.512 0 0 1-118.723 22.73C659.816 836.08 584.053 843 512.5 843s-147.316-6.92-224.935-19.226a1903.545 1903.545 0 0 1-118.723-22.73l-5.09-1.15-2.534-0.579-5.044-1.162-5.013-1.17c-1.665-0.39-3.326-0.783-4.98-1.176l-4.95-1.184-4.915-1.19-4.883-1.196-4.848-1.202-2.412-0.603C82.59 780 54 742.432 54 699.444V325.556c0-42.987 28.59-80.557 70.174-90.988 3.21-0.805 6.443-1.607 9.698-2.404l4.899-1.193c8.193-1.983 16.523-3.94 24.981-5.865l5.09-1.15a1903.555 1903.555 0 0 1 118.723-22.73C365.185 188.92 440.947 182 512.5 182z m-95.975 222.202v216.596c0 43.14 48.56 68.418 83.902 43.687l154.74-108.302c30.33-21.227 30.33-66.139 0-87.366l-154.74-108.302c-35.342-24.731-83.902 0.547-83.902 43.687z" p-id="1879"></path></svg>